<?xml version="1.0" encoding="UTF-8"?>
<svg width="288px" height="44px" viewBox="0 0 288 44" version="1.1" xmlns="http://www.w3.org/2000/svg" xmlns:xlink="http://www.w3.org/1999/xlink">
    <!-- Generator: Sketch 58 (84663) - https://sketch.com -->
    <title>Save to Google Pay - English (Dark)</title>
    <desc>Created with Sketch.</desc>
    <g id="Buttons-(Save-to-phone)" stroke="none" stroke-width="1" fill="none" fill-rule="evenodd">
        <g id="Language-Variations-Copy" transform="translate(-192.000000, -64.000000)">
            <g id="Save-to-Google-Pay---English-(Dark)" transform="translate(196.000000, 67.000000)">
                <g id="bg">
                    <use fill="black" fill-opacity="1" filter="url(#filter-2)" xlink:href="#path-1"></use>
                    <use fill="#000000" fill-rule="evenodd" xlink:href="#path-1"></use>
                </g>
                <g id="buttonContent" transform="translate(62.500000, 10.000000)">
                    <rect id="Rectangle" fill="#3C4043" x="50" y="0" width="1" height="16"></rect>
                    <g id="Gpay-logo-18px-h">
                        <g id="GPay" transform="translate(0.000000, 0.261474)">
                            <g id="Pay" transform="translate(17.615069, 0.825706)" fill="#FFFFFF">
                                <path d="M1.64941186,1.54761702 L1.64941186,5.63067176 L4.1674047,5.63067176 C4.76721599,5.63067176 5.26322816,5.42908551 5.65562807,5.02591302 C6.05830511,4.6236738 6.26011078,4.1439732 6.26011078,3.58867775 C6.26011078,3.04458155 6.05830511,2.57048056 5.65562807,2.16730807 C5.26322816,1.75386962 4.76721599,1.54668375 4.1674047,1.54668375 L1.64941186,1.54668375 L1.64941186,1.54761702 Z M1.64941186,7.06790702 L1.64941186,11.8042505 L0.145212207,11.8042505 L0.145212207,0.110381756 L4.13461128,0.110381756 C5.14840447,0.110381756 6.00888141,0.448225371 6.71791067,1.12297933 C7.43740394,1.79773329 7.79701042,2.61994385 7.79701042,3.58867775 C7.79701042,4.57981013 7.43731051,5.40762031 6.71791067,6.07117503 C6.01999941,6.73566302 5.15858818,7.06697375 4.13461128,7.06697375 L1.64941186,7.06697375 L1.64941186,7.06790702 Z" id="Fill-1"></path>
                                <path d="M9.31707424,9.35440834 C9.31707424,9.74638159 9.48337706,10.073026 9.81607612,10.3343415 C10.1485883,10.595657 10.5381854,10.7263147 10.9848673,10.7263147 C11.6172851,10.7263147 12.1806593,10.4919707 12.6767649,10.024496 C13.1729639,9.55599458 13.4204561,9.00629876 13.4204561,8.37540847 C12.9514448,8.00490042 12.297445,7.82011303 11.4584566,7.82011303 C10.8475273,7.82011303 10.3383417,7.96756963 9.93005895,8.26154958 C9.52168276,8.55543619 9.31707424,8.91857141 9.31707424,9.35440834 M11.2631909,3.5401384 C12.3749907,3.5401384 13.2522848,3.83691815 13.8961009,4.43047765 C14.5388893,5.02403715 14.8601901,5.83784829 14.8601901,6.87191106 L14.8601901,11.8042412 L13.4214839,11.8042412 L13.4214839,10.6936503 L13.3559904,10.6936503 C12.7346906,11.6081612 11.9059794,12.0655567 10.8708844,12.0655567 C9.98798466,12.0655567 9.24896483,11.8042412 8.65560011,11.2816102 C8.06148796,10.7589792 7.76438517,10.1056904 7.76438517,9.3217439 C7.76438517,8.49393372 8.07727739,7.83588529 8.70418295,7.34601205 C9.33108852,6.85604548 10.1673675,6.61059556 11.2137672,6.61059556 C12.1068507,6.61059556 12.8430677,6.77391775 13.4204561,7.10056213 L13.4204561,6.75711889 C13.4204561,6.23448789 13.2130448,5.7911848 12.7992497,5.42627637 C12.3843335,5.06136793 11.9003736,4.87938035 11.3444738,4.87938035 C10.5045511,4.87938035 9.84036755,5.23308955 9.34986766,5.94144122 L8.0249574,5.10803142 C8.75556866,4.06276941 9.83466841,3.5401384 11.2631909,3.5401384" id="Fill-3"></path>
                                <polygon id="Fill-5" points="23.1164897 3.8014539 18.0966672 15.3320005 16.5437912 15.3320005 18.4077842 11.2974758 15.1049916 3.8014539 16.7399912 3.8014539 19.1270906 9.55039497 19.1597906 9.55039497 21.4814901 3.8014539"></polygon>
                            </g>
                            <g id="G">
                                <path d="M13.1865148,6.87260706 C13.1865148,6.39943935 13.1463406,5.94307048 13.0706634,5.50630029 L6.72686492,5.50630029 L6.72686492,8.09425704 L10.3603012,8.09425704 C10.2042755,8.93783948 9.73246136,9.65561717 9.01679867,10.136251 L9.01679867,11.8170697 L11.1852753,11.8170697 C12.4549693,10.6467495 13.1865148,8.91740087 13.1865148,6.87260706" id="Fill-8" fill="#4285F4"></path>
                                <path d="M6.72685557,13.439083 C8.54217229,13.439083 10.0706634,12.843657 11.185266,11.8170603 L9.01678933,10.1362417 C8.4132409,10.542214 7.63591536,10.7792645 6.72685557,10.7792645 C4.97226741,10.7792645 3.48301633,9.59774511 2.9504736,8.00558709 L0.716596976,8.00558709 L0.716596976,9.73680229 C1.82372529,11.9318525 4.09871047,13.439083 6.72685557,13.439083" id="Fill-10" fill="#34A853"></path>
                                <path d="M2.95048294,8.00556842 C2.81407726,7.59959612 2.73933442,7.166559 2.73933442,6.71952284 C2.73933442,6.27248667 2.81407726,5.83944956 2.95048294,5.43347726 L2.95048294,3.70226205 L0.716606319,3.70226205 C0.258806425,4.60940015 9.34285496e-06,5.63413023 9.34285496e-06,6.71952284 C9.34285496e-06,7.80491544 0.258806425,8.82973885 0.716606319,9.73678363 L2.95048294,8.00556842 Z" id="Fill-12" fill="#FABB05"></path>
                                <path d="M6.72685557,2.65981851 C7.71813249,2.65981851 8.60663799,3.00046194 9.30735212,3.66774974 L9.30735212,3.66868301 L11.2273088,1.75081387 C10.0613205,0.666354532 8.54123801,0 6.72685557,0 C4.09871047,0 1.82372529,1.50723049 0.716596976,3.70228071 L2.9504736,5.43349592 C3.48301633,3.84133789 4.97226741,2.65981851 6.72685557,2.65981851" id="Fill-14" fill="#E94235"></path>
                            </g>
                        </g>
                    </g>
                    <path d="M63.546,13.224 C62.7153292,13.224 61.96867,12.9813358 61.306,12.496 C60.64333,12.0106642 60.1860013,11.3293377 59.934,10.452 L61.418,9.85 C61.5673341,10.4006694 61.8309981,10.8509982 62.209,11.201 C62.5870019,11.5510017 63.0419973,11.726 63.574,11.726 C64.0686691,11.726 64.4886649,11.5976679 64.834,11.341 C65.1793351,11.084332 65.352,10.7320022 65.352,10.284 C65.352,9.87333128 65.2003349,9.53500133 64.897,9.269 C64.5936652,9.00299867 64.0640038,8.73466802 63.308,8.464 L62.678,8.24 C62.0059966,8.0066655 61.4413356,7.67066886 60.984,7.232 C60.5266644,6.79333114 60.298,6.21467026 60.298,5.496 C60.298,5.00133086 60.433332,4.5440021 60.704,4.124 C60.974668,3.7039979 61.3503309,3.37033457 61.831,3.123 C62.3116691,2.87566543 62.8553303,2.752 63.462,2.752 C64.3393377,2.752 65.0393307,2.96433121 65.562,3.389 C66.0846693,3.81366879 66.4346658,4.29199734 66.612,4.824 L65.198,5.426 C65.0953328,5.10866508 64.8993348,4.82866788 64.61,4.586 C64.3206652,4.34333212 63.9473356,4.222 63.49,4.222 C63.0326644,4.222 62.6476682,4.3386655 62.335,4.572 C62.0223318,4.8053345 61.866,5.10399818 61.866,5.468 C61.866,5.81333506 62.0059986,6.09799888 62.286,6.322 C62.5660014,6.54600112 63.0046637,6.76066564 63.602,6.966 L64.232,7.176 C65.090671,7.47466816 65.7556643,7.86433093 66.227,8.345 C66.6983357,8.82566907 66.934,9.46732932 66.934,10.27 C66.934,10.9233366 66.7660017,11.4716644 66.43,11.915 C66.0939983,12.3583355 65.6670026,12.6873323 65.149,12.902 C64.6309974,13.1166677 64.0966694,13.224 63.546,13.224 Z M70.864,13.224 C70.3506641,13.224 69.8933353,13.1236677 69.492,12.923 C69.0906647,12.7223323 68.7780011,12.4376685 68.554,12.069 C68.3299989,11.7003315 68.218,11.282669 68.218,10.816 C68.218,10.078663 68.4956639,9.49533548 69.051,9.066 C69.6063361,8.63666452 70.3086624,8.422 71.158,8.422 C71.5780021,8.422 71.9559983,8.46166627 72.292,8.541 C72.6280017,8.62033373 72.893999,8.7066662 73.09,8.8 L73.09,8.436 C73.09,7.99733114 72.9266683,7.64033471 72.6,7.365 C72.2733317,7.08966529 71.8533359,6.952 71.34,6.952 C70.9759982,6.952 70.6330016,7.03133254 70.311,7.19 C69.9889984,7.34866746 69.730001,7.5679986 69.534,7.848 L68.456,7.022 C68.7733349,6.58333114 69.1839975,6.24266788 69.688,6 C70.1920025,5.75733212 70.7519969,5.636 71.368,5.636 C72.4040052,5.636 73.2019972,5.89033079 73.762,6.399 C74.3220028,6.90766921 74.602,7.62399538 74.602,8.548 L74.602,13 L73.09,13 L73.09,12.146 L73.02,12.146 C72.8146656,12.4540015 72.5253352,12.7106656 72.152,12.916 C71.7786648,13.1213344 71.3493358,13.224 70.864,13.224 Z M71.13,11.95 C71.5033352,11.95 71.8393318,11.8613342 72.138,11.684 C72.4366682,11.5066658 72.6699992,11.2686682 72.838,10.97 C73.0060008,10.6713318 73.09,10.3493351 73.09,10.004 C72.8753323,9.88266606 72.6256681,9.78466704 72.341,9.71 C72.0563319,9.63533296 71.7600015,9.598 71.452,9.598 C70.8733304,9.598 70.448668,9.71233219 70.178,9.941 C69.907332,10.1696678 69.772,10.4659982 69.772,10.83 C69.772,11.1566683 69.8979987,11.4249989 70.15,11.635 C70.4020013,11.845001 70.7286647,11.95 71.13,11.95 Z M75.494,5.86 L77.216,5.86 L79.19,11.012 L79.246,11.012 L81.262,5.86 L82.942,5.86 L79.974,13 L78.434,13 L75.494,5.86 Z M87.138,13.224 C86.4379965,13.224 85.8103361,13.0606683 85.255,12.734 C84.6996639,12.4073317 84.2656682,11.9570029 83.953,11.383 C83.6403318,10.8089971 83.484,10.1626703 83.484,9.444 C83.484,8.76266326 83.6356652,8.13033625 83.939,7.547 C84.2423349,6.96366375 84.664664,6.49933506 85.206,6.154 C85.7473361,5.80866494 86.3633299,5.636 87.054,5.636 C87.7726703,5.636 88.395664,5.79466508 88.923,6.112 C89.450336,6.42933492 89.8516653,6.86333058 90.127,7.414 C90.4023347,7.96466942 90.54,8.58532988 90.54,9.276 C90.54,9.40666732 90.5260002,9.56999902 90.498,9.766 L85.024,9.766 C85.0800003,10.42867 85.3156646,10.9396649 85.731,11.299 C86.1463354,11.6583351 86.6293306,11.838 87.18,11.838 C87.6186689,11.838 87.9989984,11.7376677 88.321,11.537 C88.6430016,11.3363323 88.901999,11.0633351 89.098,10.718 L90.4,11.334 C90.0639983,11.9220029 89.6253361,12.3839983 89.084,12.72 C88.542664,13.0560017 87.8940038,13.224 87.138,13.224 Z M88.972,8.59 C88.9533333,8.33799874 88.8740007,8.08833457 88.734,7.841 C88.594,7.59366543 88.3816681,7.38600084 88.097,7.218 C87.8123319,7.04999916 87.4646687,6.966 87.054,6.966 C86.5593309,6.966 86.1416684,7.11299853 85.801,7.407 C85.4603316,7.70100147 85.2246673,8.09533086 85.094,8.59 L88.972,8.59 Z M98.442,13.112 C98.1246651,13.112 97.8260014,13.0606672 97.546,12.958 C97.2659986,12.8553328 97.0373342,12.7200008 96.86,12.552 C96.4586647,12.1506647 96.258,11.6046701 96.258,10.914 L96.258,7.218 L95.012,7.218 L95.012,5.86 L96.258,5.86 L96.258,3.844 L97.798,3.844 L97.798,5.86 L99.534,5.86 L99.534,7.218 L97.798,7.218 L97.798,10.578 C97.798,10.9606686 97.8726659,11.2313325 98.022,11.39 C98.1620007,11.5766676 98.404665,11.67 98.75,11.67 C98.9086675,11.67 99.0486661,11.6490002 99.17,11.607 C99.291334,11.5649998 99.4219993,11.4973338 99.562,11.404 L99.562,12.902 C99.2539985,13.0420007 98.8806689,13.112 98.442,13.112 Z M104.22,13.224 C103.50133,13.224 102.857336,13.058335 102.288,12.727 C101.718664,12.395665 101.275335,11.9406696 100.958,11.362 C100.640665,10.7833304 100.482,10.1393369 100.482,9.43 C100.482,8.72066312 100.640665,8.07666956 100.958,7.498 C101.275335,6.91933044 101.718664,6.46433499 102.288,6.133 C102.857336,5.80166501 103.50133,5.636 104.22,5.636 C104.93867,5.636 105.582664,5.80399832 106.152,6.14 C106.721336,6.47600168 107.164665,6.93333044 107.482,7.512 C107.799335,8.09066956 107.958,8.7299965 107.958,9.43 C107.958,10.1393369 107.799335,10.7833304 107.482,11.362 C107.164665,11.9406696 106.721336,12.395665 106.152,12.727 C105.582664,13.058335 104.93867,13.224 104.22,13.224 Z M104.22,11.81 C104.612002,11.81 104.975998,11.7143343 105.312,11.523 C105.648002,11.3316657 105.916332,11.0563351 106.117,10.697 C106.317668,10.3376649 106.418,9.91533576 106.418,9.43 C106.418,8.94466424 106.317668,8.52466844 106.117,8.17 C105.916332,7.81533156 105.648002,7.54233429 105.312,7.351 C104.975998,7.15966571 104.612002,7.064 104.22,7.064 C103.827998,7.064 103.464002,7.15966571 103.128,7.351 C102.791998,7.54233429 102.523668,7.81533156 102.323,8.17 C102.122332,8.52466844 102.022,8.94466424 102.022,9.43 C102.022,9.91533576 102.122332,10.3376649 102.323,10.697 C102.523668,11.0563351 102.791998,11.3316657 103.128,11.523 C103.464002,11.7143343 103.827998,11.81 104.22,11.81 Z M112.892,5.86 L114.362,5.86 L114.362,6.798 L114.432,6.798 C114.637334,6.4713317 114.940665,6.19600112 115.342,5.972 C115.743335,5.74799888 116.195998,5.636 116.7,5.636 C117.344003,5.636 117.927331,5.7993317 118.45,6.126 C118.972669,6.4526683 119.385665,6.90299713 119.689,7.477 C119.992335,8.05100287 120.144,8.70199636 120.144,9.43 C120.144,10.1580036 119.992335,10.8089971 119.689,11.383 C119.385665,11.9570029 118.972669,12.4073317 118.45,12.734 C117.927331,13.0606683 117.344003,13.224 116.7,13.224 C116.195998,13.224 115.743335,13.1120011 115.342,12.888 C114.940665,12.6639989 114.637334,12.3933349 114.432,12.076 L114.362,12.076 L114.432,13.07 L114.432,16.024 L112.892,16.024 L112.892,5.86 Z M116.476,11.81 C116.849335,11.81 117.199332,11.712001 117.526,11.516 C117.852668,11.319999 118.113999,11.0400018 118.31,10.676 C118.506001,10.3119982 118.604,9.896669 118.604,9.43 C118.604,8.963331 118.506001,8.55033513 118.31,8.191 C118.113999,7.83166487 117.852668,7.55400098 117.526,7.358 C117.199332,7.16199902 116.849335,7.064 116.476,7.064 C116.102665,7.064 115.755002,7.16199902 115.433,7.358 C115.110998,7.55400098 114.852001,7.83166487 114.656,8.191 C114.459999,8.55033513 114.362,8.963331 114.362,9.43 C114.362,9.896669 114.459999,10.3119982 114.656,10.676 C114.852001,11.0400018 115.110998,11.319999 115.433,11.516 C115.755002,11.712001 116.102665,11.81 116.476,11.81 Z M121.554,2.976 L123.094,2.976 L123.094,5.706 L123.024,6.798 L123.094,6.798 C123.299334,6.46199832 123.604998,6.18433443 124.011,5.965 C124.417002,5.74566557 124.853331,5.636 125.32,5.636 C126.188004,5.636 126.850664,5.89033079 127.308,6.399 C127.765336,6.90766921 127.994,7.60066228 127.994,8.478 L127.994,13 L126.454,13 L126.454,8.688 C126.454,8.14666396 126.311668,7.74066802 126.027,7.47 C125.742332,7.19933198 125.371336,7.064 124.914,7.064 C124.568665,7.064 124.258335,7.16199902 123.983,7.358 C123.707665,7.55400098 123.490668,7.81299839 123.332,8.135 C123.173333,8.45700161 123.094,8.79999818 123.094,9.164 L123.094,13 L121.554,13 L121.554,2.976 Z M133.24,13.224 C132.52133,13.224 131.877336,13.058335 131.308,12.727 C130.738664,12.395665 130.295335,11.9406696 129.978,11.362 C129.660665,10.7833304 129.502,10.1393369 129.502,9.43 C129.502,8.72066312 129.660665,8.07666956 129.978,7.498 C130.295335,6.91933044 130.738664,6.46433499 131.308,6.133 C131.877336,5.80166501 132.52133,5.636 133.24,5.636 C133.95867,5.636 134.602664,5.80399832 135.172,6.14 C135.741336,6.47600168 136.184665,6.93333044 136.502,7.512 C136.819335,8.09066956 136.978,8.7299965 136.978,9.43 C136.978,10.1393369 136.819335,10.7833304 136.502,11.362 C136.184665,11.9406696 135.741336,12.395665 135.172,12.727 C134.602664,13.058335 133.95867,13.224 133.24,13.224 Z M133.24,11.81 C133.632002,11.81 133.995998,11.7143343 134.332,11.523 C134.668002,11.3316657 134.936332,11.0563351 135.137,10.697 C135.337668,10.3376649 135.438,9.91533576 135.438,9.43 C135.438,8.94466424 135.337668,8.52466844 135.137,8.17 C134.936332,7.81533156 134.668002,7.54233429 134.332,7.351 C133.995998,7.15966571 133.632002,7.064 133.24,7.064 C132.847998,7.064 132.484002,7.15966571 132.148,7.351 C131.811998,7.54233429 131.543668,7.81533156 131.343,8.17 C131.142332,8.52466844 131.042,8.94466424 131.042,9.43 C131.042,9.91533576 131.142332,10.3376649 131.343,10.697 C131.543668,11.0563351 131.811998,11.3316657 132.148,11.523 C132.484002,11.7143343 132.847998,11.81 133.24,11.81 Z M138.402,5.86 L139.872,5.86 L139.872,6.798 L139.942,6.798 C140.147334,6.46199832 140.452998,6.18433443 140.859,5.965 C141.265002,5.74566557 141.696664,5.636 142.154,5.636 C143.022004,5.636 143.682331,5.89033079 144.135,6.399 C144.587669,6.90766921 144.814,7.60066228 144.814,8.478 L144.814,13 L143.274,13 L143.274,8.688 C143.274,8.1279972 143.136335,7.71733464 142.861,7.456 C142.585665,7.19466536 142.205336,7.064 141.72,7.064 C141.374665,7.064 141.066668,7.15966571 140.796,7.351 C140.525332,7.54233429 140.315334,7.79666508 140.166,8.114 C140.016666,8.43133492 139.942,8.77199818 139.942,9.136 L139.942,13 L138.402,13 L138.402,5.86 Z M149.962,13.224 C149.261997,13.224 148.634336,13.0606683 148.079,12.734 C147.523664,12.4073317 147.089668,11.9570029 146.777,11.383 C146.464332,10.8089971 146.308,10.1626703 146.308,9.444 C146.308,8.76266326 146.459665,8.13033625 146.763,7.547 C147.066335,6.96366375 147.488664,6.49933506 148.03,6.154 C148.571336,5.80866494 149.18733,5.636 149.878,5.636 C150.59667,5.636 151.219664,5.79466508 151.747,6.112 C152.274336,6.42933492 152.675665,6.86333058 152.951,7.414 C153.226335,7.96466942 153.364,8.58532988 153.364,9.276 C153.364,9.40666732 153.35,9.56999902 153.322,9.766 L147.848,9.766 C147.904,10.42867 148.139665,10.9396649 148.555,11.299 C148.970335,11.6583351 149.453331,11.838 150.004,11.838 C150.442669,11.838 150.822998,11.7376677 151.145,11.537 C151.467002,11.3363323 151.725999,11.0633351 151.922,10.718 L153.224,11.334 C152.887998,11.9220029 152.449336,12.3839983 151.908,12.72 C151.366664,13.0560017 150.718004,13.224 149.962,13.224 Z M151.796,8.59 C151.777333,8.33799874 151.698001,8.08833457 151.558,7.841 C151.418,7.59366543 151.205668,7.38600084 150.921,7.218 C150.636332,7.04999916 150.288669,6.966 149.878,6.966 C149.383331,6.966 148.965668,7.11299853 148.625,7.407 C148.284332,7.70100147 148.048667,8.09533086 147.918,8.59 L151.796,8.59 Z" id="Savetophonee" fill="#FFFFFF" fill-rule="nonzero"></path>
                </g>
            </g>
        </g>
    </g>
</svg>