<svg width="111.811" height="122.88" xmlns="http://www.w3.org/2000/svg">

 <g>
  <title>background</title>
  <rect fill="none" id="canvas_background" height="514" width="514" y="-1" x="-1"/>
 </g>
 <g>
  <title>Layer 1</title>
  <g id="svg_1">
   <path fill="#000000" id="svg_2" d="m55.713,0c20.848,13.215 39.682,19.467 55.846,17.989c2.823,57.098 -18.263,90.818 -55.63,104.891c-36.085,-13.172 -57.429,-45.441 -55.846,-105.757c18.975,0.993 37.591,-3.109 55.63,-17.123l0,0zm-21.929,66.775c-1.18,-1.01 -1.318,-2.786 -0.309,-3.967c1.011,-1.181 2.787,-1.318 3.967,-0.309l11.494,9.875l25.18,-27.684c1.047,-1.15 2.828,-1.234 3.979,-0.188c1.149,1.046 1.233,2.827 0.187,3.978l-27.02,29.708l-0.002,-0.002c-1.02,1.121 -2.751,1.236 -3.91,0.244l-13.566,-11.655l0,0zm21.951,-59.72c18.454,11.697 35.126,17.232 49.434,15.923c2.498,50.541 -16.166,80.39 -49.241,92.846c-31.942,-11.659 -50.837,-40.221 -49.435,-93.613c16.797,0.88 33.275,-2.751 49.242,-15.156l0,0z" clip-rule="evenodd" fill-rule="evenodd"/>
  </g>
 </g>
</svg>